<svg width="24" height="24" viewBox="0 0 24 24" fill="none" xmlns="http://www.w3.org/2000/svg">
<path d="M2.86796 21.1956H14.4408C14.6871 21.1956 14.8933 21.282 15.0594 21.4548C15.2256 21.6274 15.3088 21.8418 15.3088 22.0978C15.3088 22.3538 15.2256 22.5681 15.0594 22.7408C14.8933 22.9136 14.6871 23 14.4408 23H2.86796C2.62165 23 2.41537 22.9136 2.24911 22.7408C2.08304 22.5681 2 22.3538 2 22.0978C2 21.8418 2.08304 21.6274 2.24911 21.4548C2.41537 21.282 2.62165 21.1956 2.86796 21.1956ZM7.23439 15.2548L4.04289 11.9373C3.64382 11.5225 3.43947 11.014 3.42982 10.4117C3.42018 9.80942 3.61489 9.29707 4.01396 8.87463L4.60823 8.24548L10.804 14.6256L10.1988 15.2548C9.7997 15.6696 9.30564 15.877 8.71658 15.877C8.12753 15.877 7.63346 15.6696 7.23439 15.2548ZM15.5758 9.66557L9.43786 3.22526L10.0431 2.60755C10.4495 2.19273 10.9424 1.99033 11.5218 2.00035C12.1013 2.01038 12.5905 2.2228 12.9896 2.63762L16.1811 5.95506C16.5801 6.36988 16.7797 6.88344 16.7797 7.49574C16.7797 8.10805 16.5801 8.62161 16.1811 9.03643L15.5758 9.66557ZM20.5342 21.0476L6.44223 6.39925L7.66172 5.13164L21.754 19.7797C21.914 19.9463 21.996 20.1557 21.9999 20.4079C22.0035 20.66 21.9216 20.8732 21.754 21.0476C21.5861 21.2218 21.3829 21.309 21.1441 21.309C20.9053 21.309 20.702 21.2218 20.5342 21.0476Z" fill="#16261D"/>
</svg>
